<svg width="468" height="132" viewBox="0 0 468 132" fill="none" xmlns="http://www.w3.org/2000/svg">
<path d="M10.847 104.005C11.5563 104.36 12.31 104.67 13.108 104.936C13.9947 105.113 15.2803 105.202 16.965 105.202C20.8663 105.202 24.0583 104.049 26.541 101.744C29.1123 99.35 30.398 95.9363 30.398 91.503C30.398 88.7543 29.866 86.05 28.802 83.39C27.8267 80.6413 26.0533 77.4937 23.482 73.947C21.4427 71.1097 19.492 68.228 17.63 65.302C15.768 62.2873 14.837 58.7407 14.837 54.662C14.837 50.8493 15.768 47.5687 17.63 44.82C19.492 41.9827 21.9747 39.766 25.078 38.17C28.27 36.574 31.728 35.776 35.452 35.776C38.0233 35.776 40.5503 36.0863 43.033 36.707C45.5157 37.3277 47.555 38.4803 49.151 40.165C50.8357 41.761 51.678 44.155 51.678 47.347C51.678 48.145 51.4563 49.1203 51.013 50.273C50.6583 51.337 50.0377 52.268 49.151 53.066C48.2643 53.864 47.0673 54.263 45.56 54.263C44.1413 54.263 42.9 53.7753 41.836 52.8C40.772 51.736 40.24 50.3617 40.24 48.677C40.24 47.081 40.5503 45.5737 41.171 44.155C41.8803 42.6477 42.8113 41.1847 43.964 39.766C42.2793 38.702 40.0627 38.17 37.314 38.17C34.0333 38.17 31.2847 39.2783 29.068 41.495C26.8513 43.7117 25.743 46.815 25.743 50.805C25.743 52.8443 26.0533 54.662 26.674 56.258C27.2947 57.7653 28.1813 59.3613 29.334 61.046C30.5753 62.7307 32.0383 64.8587 33.723 67.43C35.9397 70.7993 37.8017 74.0357 39.309 77.139C40.8163 80.2423 41.57 83.523 41.57 86.981C41.57 91.0597 40.506 94.695 38.378 97.887C36.3387 100.99 33.59 103.429 30.132 105.202C26.674 106.975 22.8613 107.862 18.694 107.862C15.6793 107.862 12.7977 107.419 10.049 106.532C7.30033 105.645 5.03933 104.271 3.266 102.409C1.58133 100.458 0.739 97.887 0.739 94.695C0.739 93.4537 1.138 92.168 1.936 90.838C2.64533 89.4193 3.97533 88.71 5.926 88.71C8.054 88.71 9.56133 89.5967 10.448 91.37C11.3347 93.0547 11.778 94.961 11.778 97.089C11.778 98.5077 11.645 99.7933 11.379 100.946C11.2017 102.01 11.0243 103.03 10.847 104.005ZM103.529 37.638L103.13 40.298H61.7673L62.4323 37.638H103.529ZM69.7473 94.695C68.9493 97.621 69.1266 99.749 70.2793 101.079C71.5206 102.32 73.1166 102.941 75.0673 102.941C77.018 102.941 78.9686 102.099 80.9193 100.414C82.9586 98.7293 84.9536 95.1383 86.9043 89.641L88.7663 84.454H91.2933L88.5003 92.833C86.5496 98.5963 84.0226 102.542 80.9193 104.67C77.9046 106.798 74.358 107.862 70.2793 107.862C66.644 107.862 63.851 107.108 61.9003 105.601C60.0383 104.005 58.93 101.788 58.5753 98.951C58.2206 96.1137 58.5753 92.8773 59.6393 89.242L80.2543 17.422C82.3823 17.3333 84.466 17.156 86.5053 16.89C88.6333 16.624 90.5396 16.1807 92.2243 15.56L69.7473 94.695ZM151.135 59.982C147.943 68.8487 144.884 76.341 141.958 82.459C139.032 88.577 136.106 93.498 133.18 97.222C130.343 100.946 127.417 103.65 124.402 105.335C121.476 107.02 118.417 107.862 115.225 107.862C111.324 107.862 108.486 106.975 106.713 105.202C104.94 103.429 104.053 101.035 104.053 98.02C104.053 95.0053 104.674 91.5917 105.915 87.779L118.816 48.943C119.703 46.283 120.013 44.2437 119.747 42.825C119.481 41.4063 118.461 40.697 116.688 40.697C115.003 40.697 113.319 41.628 111.634 43.49C110.038 45.352 108.309 48.943 106.447 54.263L104.718 59.184H102.191L105.516 49.475C106.846 45.751 108.398 42.9137 110.171 40.963C112.033 39.0123 113.939 37.6823 115.89 36.973C117.929 36.175 119.836 35.776 121.609 35.776C125.51 35.776 128.082 36.707 129.323 38.569C130.653 40.3423 131.141 42.6477 130.786 45.485C130.52 48.3223 129.855 51.2927 128.791 54.396L116.156 92.434C113.673 99.882 114.649 103.606 119.082 103.606C121.21 103.606 123.471 102.675 125.865 100.813C128.259 98.8623 130.697 96.1137 133.18 92.567C135.663 88.9317 138.101 84.6313 140.495 79.666C142.978 74.612 145.327 69.026 147.544 62.908C149.849 56.7013 151.933 50.0513 153.795 42.958L151.135 59.982ZM150.736 94.695C150.115 97.089 149.805 99.084 149.805 100.68C149.894 102.187 150.825 102.941 152.598 102.941C154.549 102.941 156.322 101.921 157.918 99.882C159.603 97.754 161.287 94.2517 162.972 89.375L164.701 84.454H167.228L163.903 94.163C162.662 97.887 161.11 100.724 159.248 102.675C157.475 104.626 155.568 105.956 153.529 106.665C151.578 107.463 149.672 107.862 147.81 107.862C146.391 107.862 145.061 107.552 143.82 106.931C142.579 106.31 141.648 105.424 141.027 104.271C140.318 102.764 140.052 100.857 140.229 98.552C140.495 96.2467 141.116 93.1433 142.091 89.242L155.125 37.638C157.342 37.5493 159.47 37.372 161.509 37.106C163.637 36.84 165.543 36.3967 167.228 35.776L150.736 94.695ZM216.755 38.436C213.386 38.436 210.016 39.8103 206.647 42.559C203.366 45.3077 200.352 49.076 197.603 53.864C194.854 58.652 192.638 64.105 190.953 70.223C189.357 76.341 188.559 82.7693 188.559 89.508C188.559 94.03 189.401 97.3107 191.086 99.35C192.859 101.301 195.12 102.276 197.869 102.276C201.061 102.276 204.342 101.301 207.711 99.35C211.08 97.3993 214.45 93.9413 217.819 88.976L220.479 90.04C218.794 92.966 216.578 95.8033 213.829 98.552C211.08 101.301 207.977 103.562 204.519 105.335C201.15 107.02 197.559 107.862 193.746 107.862C188.426 107.862 184.17 106.222 180.978 102.941C177.786 99.6603 176.19 94.7837 176.19 88.311C176.19 84.2323 176.766 79.8433 177.919 75.144C179.16 70.356 180.889 65.6567 183.106 61.046C185.411 56.3467 188.204 52.135 191.485 48.411C194.766 44.5983 198.49 41.5393 202.657 39.234C206.824 36.9287 211.391 35.776 216.356 35.776C220.257 35.776 223.627 36.7957 226.464 38.835C229.301 40.7857 230.72 43.5343 230.72 47.081C230.72 48.7657 230.321 50.4503 229.523 52.135C228.814 53.731 227.75 55.061 226.331 56.125C224.912 57.189 223.228 57.721 221.277 57.721C219.415 57.721 218.041 57.2333 217.154 56.258C216.267 55.194 215.824 53.9527 215.824 52.534C215.824 49.9627 216.844 47.7903 218.883 46.017C220.922 44.155 223.228 43.0023 225.799 42.559C224.912 41.3177 223.76 40.3423 222.341 39.633C220.922 38.835 219.06 38.436 216.755 38.436ZM241.578 106H230.007L256.341 17.289C257.228 14.2743 257.095 12.0577 255.942 10.639C254.878 9.22033 252.174 8.51099 247.829 8.51099L248.627 5.718C253.504 5.62933 257.893 5.14166 261.794 4.25499C265.695 3.27966 269.286 1.94966 272.567 0.264998L241.578 106ZM245.302 86.316C248.671 77.006 251.863 69.1147 254.878 62.642C257.981 56.1693 261.04 50.9823 264.055 47.081C267.07 43.091 270.173 40.2093 273.365 38.436C276.557 36.6627 279.882 35.776 283.34 35.776C287.507 35.776 290.345 36.7957 291.852 38.835C293.448 40.7857 294.157 43.3127 293.98 46.416C293.803 49.5193 293.182 52.667 292.118 55.859L279.217 94.695C278.508 97.0003 278.197 98.951 278.286 100.547C278.375 102.143 279.394 102.941 281.345 102.941C283.03 102.941 284.67 102.01 286.266 100.148C287.951 98.286 289.724 94.695 291.586 89.375L293.315 84.454H295.842L292.517 94.163C291.276 97.887 289.724 100.724 287.862 102.675C286.089 104.626 284.182 105.956 282.143 106.665C280.192 107.463 278.286 107.862 276.424 107.862C272.877 107.862 270.395 107.064 268.976 105.468C267.557 103.872 266.937 101.655 267.114 98.818C267.38 95.9807 268.089 92.7887 269.242 89.242L281.877 51.204C282.32 49.874 282.719 48.3223 283.074 46.549C283.429 44.7757 283.34 43.2683 282.808 42.027C282.365 40.697 281.079 40.032 278.951 40.032C276.734 40.032 274.34 41.0517 271.769 43.091C269.286 45.0417 266.715 47.879 264.055 51.603C261.395 55.327 258.779 59.8047 256.208 65.036C253.637 70.2673 251.154 76.1193 248.76 82.592C246.455 88.976 244.282 95.892 242.243 103.34L245.302 86.316ZM316.076 94.695C315.366 97.2663 315.145 99.3057 315.411 100.813C315.677 102.232 316.652 102.941 318.337 102.941C320.11 102.941 321.75 101.966 323.258 100.015C324.854 97.9757 326.538 94.429 328.312 89.375L330.041 84.454H332.568L329.243 94.163C328.09 97.5323 326.671 100.237 324.987 102.276C323.391 104.227 321.617 105.645 319.667 106.532C317.716 107.419 315.588 107.862 313.283 107.862C310.357 107.862 308.184 107.286 306.766 106.133C305.436 105.069 304.593 103.606 304.239 101.744C303.973 99.882 304.017 97.887 304.372 95.759C304.815 93.5423 305.347 91.37 305.968 89.242L327.647 17.289C328.533 14.2743 328.445 12.0577 327.381 10.639C326.317 9.22033 323.612 8.51099 319.268 8.51099L320.199 5.718C325.075 5.62933 329.376 5.14166 333.1 4.25499C336.824 3.27966 340.415 1.94966 343.873 0.264998L316.076 94.695ZM377.035 100.68L368.124 110.389L358.016 49.209C357.573 46.4603 357.041 44.554 356.42 43.49C355.8 42.426 354.913 41.894 353.76 41.894C352.785 41.894 351.677 42.692 350.435 44.288C349.194 45.7953 347.687 49.076 345.913 54.13L344.184 59.051H341.657L344.982 49.342C346.844 43.9333 349.15 40.3423 351.898 38.569C354.647 36.707 357.44 35.776 360.277 35.776C363.026 35.776 365.154 36.6627 366.661 38.436C368.169 40.1207 369.233 43.3127 369.853 48.012L377.035 100.68ZM347.908 124.753C351.721 122.714 355.755 119.921 360.011 116.374C364.356 112.916 368.834 108.217 373.444 102.276C378.676 95.626 383.419 88.178 387.675 79.932C392.02 71.5973 395.035 63.2183 396.719 54.795C395.301 53.997 393.749 53.0217 392.064 51.869C390.468 50.6277 389.138 49.209 388.074 47.613C387.01 45.9283 386.523 44.0663 386.611 42.027C386.789 39.9877 387.498 38.436 388.739 37.372C389.981 36.308 391.532 35.776 393.394 35.776C395.788 35.776 397.517 36.707 398.581 38.569C399.734 40.3423 400.31 43.0023 400.31 46.549C400.31 51.071 399.557 55.9477 398.049 61.179C396.542 66.3217 394.503 71.553 391.931 76.873C389.449 82.193 386.656 87.3357 383.552 92.301C380.449 97.1777 377.301 101.611 374.109 105.601C372.691 107.374 370.74 109.591 368.257 112.251C365.775 114.911 362.804 117.615 359.346 120.364C355.977 123.201 352.164 125.64 347.908 127.679C345.248 128.92 342.943 129.763 340.992 130.206C339.13 130.738 337.579 131.004 336.337 131.004C334.564 131.004 333.012 130.516 331.682 129.541C330.352 128.654 329.687 127.324 329.687 125.551C329.687 123.6 330.441 122.093 331.948 121.029C333.367 120.054 335.007 119.566 336.869 119.566C338.909 119.566 340.815 120.098 342.588 121.162C344.45 122.226 346.224 123.423 347.908 124.753ZM412.34 40.298L413.138 37.638H452.373L451.575 40.298H412.34ZM455.166 3.989C453.481 3.989 452.018 4.34366 450.777 5.05299C449.535 5.76233 448.427 6.56033 447.452 7.44699C445.856 8.95433 444.437 11.2597 443.196 14.363C442.043 17.3777 440.935 20.88 439.871 24.87C438.895 28.86 437.831 33.0717 436.679 37.505L412.074 129.142C409.946 129.231 407.862 129.408 405.823 129.674C403.783 129.94 401.877 130.383 400.104 131.004L425.108 37.505C426.97 30.4117 428.92 24.5597 430.96 19.949C433.088 15.3383 435.659 11.57 438.674 8.64399C440.713 6.60466 443.196 5.00866 446.122 3.856C449.136 2.61466 452.195 1.99399 455.299 1.99399C459.377 1.99399 462.481 2.92499 464.609 4.787C466.825 6.56033 467.934 8.77699 467.934 11.437C467.934 12.9443 467.535 14.4073 466.737 15.826C465.939 17.2447 464.875 18.3973 463.545 19.284C462.215 20.1707 460.707 20.614 459.023 20.614C457.338 20.614 456.008 20.215 455.033 19.417C454.057 18.619 453.614 17.5107 453.703 16.092C453.703 13.8753 454.412 12.0133 455.831 10.506C457.249 8.90999 459.067 7.80166 461.284 7.181C461.284 6.383 460.707 5.67366 459.555 5.05299C458.402 4.34366 456.939 3.989 455.166 3.989ZM446.027 101.079C446.027 98.419 447.047 96.0693 449.086 94.03C451.125 91.902 453.386 90.838 455.869 90.838C457.908 90.838 459.549 91.503 460.79 92.833C462.031 94.163 462.652 95.8033 462.652 97.754C462.652 99.5273 462.164 101.212 461.189 102.808C460.302 104.315 459.105 105.512 457.598 106.399C456.091 107.374 454.45 107.862 452.677 107.862C450.726 107.862 449.13 107.241 447.889 106C446.648 104.67 446.027 103.03 446.027 101.079Z" fill="white"/>
</svg>
