<?xml version="1.0" standalone="no"?>
<!DOCTYPE svg PUBLIC "-//W3C//DTD SVG 20010904//EN"
 "http://www.w3.org/TR/2001/REC-SVG-20010904/DTD/svg10.dtd">
<svg version="1.0" xmlns="http://www.w3.org/2000/svg"
 width="700.000000pt" height="700.000000pt" viewBox="0 0 700.000000 700.000000"
 preserveAspectRatio="xMidYMid meet">
<metadata>
Created by potrace 1.14, written by Peter Selinger 2001-2017
</metadata>
<g transform="translate(0.000000,700.000000) scale(0.100000,-0.100000)"
fill="#000000" stroke="none">
<path d="M3220 6994 c-182 -20 -243 -29 -360 -50 -786 -142 -1524 -572 -2041
-1189 -436 -522 -692 -1103 -796 -1810 -25 -173 -25 -717 0 -890 70 -477 202
-877 416 -1258 281 -503 667 -917 1146 -1229 449 -293 903 -461 1470 -545 152
-22 705 -26 855 -5 823 113 1504 445 2065 1007 493 492 830 1119 959 1783 55
283 61 346 61 692 0 346 -6 409 -61 692 -148 762 -575 1482 -1179 1989 -517
433 -1119 699 -1800 795 -114 15 -640 29 -735 18z m1851 -1164 c203 -39 341
-206 310 -377 -15 -77 -44 -134 -97 -189 -63 -64 -131 -94 -219 -94 -161 0
-226 90 -180 247 28 95 115 182 218 220 52 19 56 29 27 65 -35 45 -114 72
-210 73 -77 0 -92 -3 -154 -34 -96 -47 -190 -142 -243 -246 -58 -113 -129
-333 -212 -658 -39 -153 -71 -284 -71 -292 0 -13 41 -15 286 -15 267 0 285 -1
280 -17 -3 -10 -8 -30 -12 -45 l-6 -28 -291 -2 -290 -3 -437 -1628 c-241 -895
-440 -1630 -443 -1633 -3 -3 -54 -10 -114 -15 -108 -10 -247 -34 -290 -50 -13
-5 -23 -6 -23 -4 0 5 876 3283 886 3318 5 16 -10 17 -216 17 -206 0 -221 1
-216 18 3 9 8 29 12 45 l6 27 222 0 222 0 28 108 c45 166 143 446 197 561 104
220 274 429 419 514 82 47 195 91 285 110 82 18 250 21 326 7z m-2496 -1255
c209 -43 329 -153 356 -327 11 -68 10 -81 -10 -146 -36 -119 -98 -172 -201
-172 -211 0 -260 244 -96 475 19 26 33 52 30 56 -10 17 -121 50 -189 56 -310
26 -521 -215 -477 -544 15 -115 52 -191 195 -401 195 -286 304 -481 349 -623
20 -65 23 -94 23 -234 0 -148 -2 -165 -27 -233 -130 -358 -504 -571 -915 -523
-265 31 -452 140 -514 300 -18 43 -23 78 -23 151 -1 87 1 100 28 147 48 86
140 116 232 74 50 -23 77 -56 105 -129 27 -70 30 -226 6 -340 l-15 -74 45 -20
c63 -28 206 -35 301 -14 102 21 173 56 236 116 191 180 195 521 12 843 -24 42
-93 148 -153 234 -149 215 -211 315 -238 387 -54 144 -59 358 -12 494 81 233
295 406 568 457 91 18 271 13 384 -10z m2502 -2041 c29 -18 59 -49 78 -78 28
-46 30 -57 30 -140 0 -82 -3 -97 -32 -151 -38 -74 -115 -148 -191 -183 -76
-36 -186 -38 -248 -5 -154 82 -167 309 -27 464 82 91 171 131 276 125 53 -3
78 -10 114 -32z"/>
</g>
</svg>
